<svg width="970" height="400" viewBox="0 0 970 400" fill="none" xmlns="http://www.w3.org/2000/svg">
<rect width="970" height="400" rx="6" fill="#161B22"/>
<path d="M23.548 26.762H24.99V27.812H23.548V32.306C23.548 32.446 23.5573 32.558 23.576 32.642C23.604 32.726 23.6507 32.7913 23.716 32.838C23.7813 32.8847 23.87 32.9173 23.982 32.936C24.1033 32.9453 24.2573 32.95 24.444 32.95H24.99V34H24.08C23.772 34 23.506 33.9813 23.282 33.944C23.0673 33.8973 22.89 33.818 22.75 33.706C22.6193 33.594 22.5213 33.4353 22.456 33.23C22.3907 33.0247 22.358 32.754 22.358 32.418V27.812H21.126V26.762H22.358V24.592H23.548V26.762ZM26.312 24.004H27.502V27.826H27.53C27.6233 27.602 27.754 27.4153 27.922 27.266C28.09 27.1073 28.2767 26.9813 28.482 26.888C28.6967 26.7853 28.916 26.7107 29.14 26.664C29.3733 26.6173 29.5973 26.594 29.812 26.594C30.288 26.594 30.6847 26.6593 31.002 26.79C31.3193 26.9207 31.576 27.1027 31.772 27.336C31.968 27.5693 32.1033 27.8493 32.178 28.176C32.262 28.4933 32.304 28.848 32.304 29.24V34H31.114V29.1C31.114 28.652 30.9833 28.2973 30.722 28.036C30.4607 27.7747 30.1013 27.644 29.644 27.644C29.28 27.644 28.9627 27.7 28.692 27.812C28.4307 27.924 28.2113 28.0827 28.034 28.288C27.8567 28.4933 27.7213 28.736 27.628 29.016C27.544 29.2867 27.502 29.5853 27.502 29.912V34H26.312V24.004ZM39.1173 29.688C39.0986 29.408 39.0333 29.142 38.9213 28.89C38.8186 28.638 38.674 28.4233 38.4873 28.246C38.31 28.0593 38.0953 27.9147 37.8433 27.812C37.6006 27.7 37.33 27.644 37.0313 27.644C36.7233 27.644 36.4433 27.7 36.1913 27.812C35.9486 27.9147 35.7386 28.0593 35.5613 28.246C35.384 28.4327 35.244 28.652 35.1413 28.904C35.0386 29.1467 34.978 29.408 34.9593 29.688H39.1173ZM40.2653 31.704C40.1066 32.516 39.7566 33.1273 39.2153 33.538C38.674 33.9487 37.9926 34.154 37.1713 34.154C36.5926 34.154 36.0886 34.0607 35.6593 33.874C35.2393 33.6873 34.8846 33.426 34.5953 33.09C34.306 32.754 34.0866 32.3527 33.9373 31.886C33.7973 31.4193 33.718 30.9107 33.6993 30.36C33.6993 29.8093 33.7833 29.3053 33.9513 28.848C34.1193 28.3907 34.3526 27.994 34.6513 27.658C34.9593 27.322 35.3186 27.0607 35.7293 26.874C36.1493 26.6873 36.6066 26.594 37.1013 26.594C37.7453 26.594 38.2773 26.7293 38.6973 27C39.1266 27.2613 39.4673 27.5973 39.7193 28.008C39.9806 28.4187 40.158 28.8667 40.2513 29.352C40.354 29.8373 40.396 30.2993 40.3773 30.738H34.9593C34.95 31.0553 34.9873 31.3587 35.0713 31.648C35.1553 31.928 35.2906 32.18 35.4773 32.404C35.664 32.6187 35.902 32.7913 36.1913 32.922C36.4806 33.0527 36.8213 33.118 37.2133 33.118C37.7173 33.118 38.128 33.0013 38.4453 32.768C38.772 32.5347 38.9866 32.18 39.0893 31.704H40.2653ZM46.4733 29.002C46.4733 29.506 46.5387 30.0053 46.6693 30.5C46.8 30.9853 47.0053 31.424 47.2853 31.816C47.5653 32.208 47.9247 32.5253 48.3633 32.768C48.802 33.0013 49.3247 33.118 49.9313 33.118C50.538 33.118 51.0607 33.0013 51.4993 32.768C51.938 32.5253 52.2973 32.208 52.5773 31.816C52.8573 31.424 53.0627 30.9853 53.1933 30.5C53.324 30.0053 53.3893 29.506 53.3893 29.002C53.3893 28.498 53.324 28.0033 53.1933 27.518C53.0627 27.0233 52.8573 26.58 52.5773 26.188C52.2973 25.796 51.938 25.4833 51.4993 25.25C51.0607 25.0073 50.538 24.886 49.9313 24.886C49.3247 24.886 48.802 25.0073 48.3633 25.25C47.9247 25.4833 47.5653 25.796 47.2853 26.188C47.0053 26.58 46.8 27.0233 46.6693 27.518C46.5387 28.0033 46.4733 28.498 46.4733 29.002ZM45.1433 29.002C45.1433 28.3207 45.2413 27.6673 45.4373 27.042C45.6427 26.4073 45.946 25.8473 46.3473 25.362C46.7487 24.8767 47.248 24.4893 47.8453 24.2C48.4427 23.9107 49.138 23.766 49.9313 23.766C50.7247 23.766 51.42 23.9107 52.0173 24.2C52.6147 24.4893 53.114 24.8767 53.5153 25.362C53.9167 25.8473 54.2153 26.4073 54.4113 27.042C54.6167 27.6673 54.7193 28.3207 54.7193 29.002C54.7193 29.6833 54.6167 30.3413 54.4113 30.976C54.2153 31.6013 53.9167 32.1567 53.5153 32.642C53.114 33.1273 52.6147 33.5147 52.0173 33.804C51.42 34.084 50.7247 34.224 49.9313 34.224C49.138 34.224 48.4427 34.084 47.8453 33.804C47.248 33.5147 46.7487 33.1273 46.3473 32.642C45.946 32.1567 45.6427 31.6013 45.4373 30.976C45.2413 30.3413 45.1433 29.6833 45.1433 29.002ZM56.144 26.762H57.264V27.826H57.292C57.8334 27.0047 58.6127 26.594 59.63 26.594C60.078 26.594 60.484 26.6873 60.848 26.874C61.212 27.0607 61.4687 27.378 61.618 27.826C61.8607 27.434 62.178 27.1307 62.57 26.916C62.9714 26.7013 63.41 26.594 63.886 26.594C64.25 26.594 64.5767 26.636 64.866 26.72C65.1647 26.7947 65.4167 26.916 65.622 27.084C65.8367 27.252 66 27.4713 66.112 27.742C66.2334 28.0033 66.294 28.3207 66.294 28.694V34H65.104V29.254C65.104 29.03 65.0854 28.82 65.048 28.624C65.0107 28.428 64.9407 28.26 64.838 28.12C64.7354 27.9707 64.5907 27.854 64.404 27.77C64.2267 27.686 63.9934 27.644 63.704 27.644C63.116 27.644 62.654 27.812 62.318 28.148C61.982 28.484 61.814 28.932 61.814 29.492V34H60.624V29.254C60.624 29.0207 60.6007 28.806 60.554 28.61C60.5167 28.414 60.4467 28.246 60.344 28.106C60.2414 27.9567 60.1014 27.8447 59.924 27.77C59.756 27.686 59.5367 27.644 59.266 27.644C58.9207 27.644 58.622 27.714 58.37 27.854C58.1274 27.994 57.9267 28.162 57.768 28.358C57.6187 28.554 57.5067 28.7593 57.432 28.974C57.3667 29.1793 57.334 29.352 57.334 29.492V34H56.144V26.762ZM68.0796 26.762H69.1996V27.91H69.2276C69.7223 27.0327 70.5063 26.594 71.5796 26.594C72.0556 26.594 72.4523 26.6593 72.7696 26.79C73.0869 26.9207 73.3436 27.1027 73.5396 27.336C73.7356 27.5693 73.8709 27.8493 73.9456 28.176C74.0296 28.4933 74.0716 28.848 74.0716 29.24V34H72.8816V29.1C72.8816 28.652 72.7509 28.2973 72.4896 28.036C72.2283 27.7747 71.8689 27.644 71.4116 27.644C71.0476 27.644 70.7303 27.7 70.4596 27.812C70.1983 27.924 69.9789 28.0827 69.8016 28.288C69.6243 28.4933 69.4889 28.736 69.3956 29.016C69.3116 29.2867 69.2696 29.5853 69.2696 29.912V34H68.0796V26.762ZM77.1189 25.46H75.9289V24.004H77.1189V25.46ZM75.9289 26.762H77.1189V34H75.9289V26.762ZM79.0044 26.762H80.1944V27.742H80.2224C80.4184 27.3407 80.7264 27.0513 81.1464 26.874C81.5664 26.6873 82.0284 26.594 82.5324 26.594C83.0924 26.594 83.5777 26.6967 83.9884 26.902C84.4084 27.1073 84.7537 27.3873 85.0244 27.742C85.3044 28.0873 85.5144 28.4887 85.6544 28.946C85.7944 29.4033 85.8644 29.8887 85.8644 30.402C85.8644 30.9153 85.7944 31.4007 85.6544 31.858C85.5237 32.3153 85.3184 32.7167 85.0384 33.062C84.7677 33.398 84.4224 33.664 84.0024 33.86C83.5917 34.056 83.1111 34.154 82.5604 34.154C82.3831 34.154 82.1824 34.1353 81.9584 34.098C81.7437 34.0607 81.5291 34 81.3144 33.916C81.0997 33.832 80.8944 33.72 80.6984 33.58C80.5117 33.4307 80.3531 33.2487 80.2224 33.034H80.1944V36.758H79.0044V26.762ZM84.6044 30.318C84.6044 29.982 84.5577 29.6553 84.4644 29.338C84.3804 29.0113 84.2451 28.722 84.0584 28.47C83.8811 28.218 83.6477 28.0173 83.3584 27.868C83.0784 27.7187 82.7471 27.644 82.3644 27.644C81.9631 27.644 81.6224 27.7233 81.3424 27.882C81.0624 28.0407 80.8337 28.2507 80.6564 28.512C80.4791 28.764 80.3484 29.0533 80.2644 29.38C80.1897 29.7067 80.1524 30.038 80.1524 30.374C80.1524 30.7287 80.1944 31.074 80.2784 31.41C80.3624 31.7367 80.4931 32.026 80.6704 32.278C80.8571 32.53 81.0951 32.7353 81.3844 32.894C81.6737 33.0433 82.0237 33.118 82.4344 33.118C82.8451 33.118 83.1857 33.0387 83.4564 32.88C83.7364 32.7213 83.9604 32.5113 84.1284 32.25C84.2964 31.9887 84.4177 31.69 84.4924 31.354C84.5671 31.018 84.6044 30.6727 84.6044 30.318ZM87.2192 26.762H88.3392V28.288H88.3672C88.6566 27.7 89.0112 27.266 89.4312 26.986C89.8512 26.706 90.3832 26.5753 91.0272 26.594V27.854C90.5512 27.854 90.1452 27.9193 89.8092 28.05C89.4732 28.1807 89.2026 28.372 88.9972 28.624C88.7919 28.876 88.6426 29.184 88.5492 29.548C88.4559 29.9027 88.4092 30.3133 88.4092 30.78V34H87.2192V26.762ZM96.7033 29.688C96.6846 29.408 96.6193 29.142 96.5073 28.89C96.4046 28.638 96.2599 28.4233 96.0733 28.246C95.8959 28.0593 95.6813 27.9147 95.4293 27.812C95.1866 27.7 94.9159 27.644 94.6173 27.644C94.3093 27.644 94.0293 27.7 93.7773 27.812C93.5346 27.9147 93.3246 28.0593 93.1473 28.246C92.9699 28.4327 92.8299 28.652 92.7273 28.904C92.6246 29.1467 92.5639 29.408 92.5453 29.688H96.7033ZM97.8512 31.704C97.6926 32.516 97.3426 33.1273 96.8013 33.538C96.2599 33.9487 95.5786 34.154 94.7573 34.154C94.1786 34.154 93.6746 34.0607 93.2453 33.874C92.8253 33.6873 92.4706 33.426 92.1813 33.09C91.8919 32.754 91.6726 32.3527 91.5233 31.886C91.3833 31.4193 91.3039 30.9107 91.2853 30.36C91.2853 29.8093 91.3693 29.3053 91.5373 28.848C91.7053 28.3907 91.9386 27.994 92.2373 27.658C92.5453 27.322 92.9046 27.0607 93.3153 26.874C93.7353 26.6873 94.1926 26.594 94.6873 26.594C95.3313 26.594 95.8633 26.7293 96.2833 27C96.7126 27.2613 97.0533 27.5973 97.3053 28.008C97.5666 28.4187 97.7439 28.8667 97.8373 29.352C97.9399 29.8373 97.9819 30.2993 97.9633 30.738H92.5453C92.5359 31.0553 92.5733 31.3587 92.6573 31.648C92.7413 31.928 92.8766 32.18 93.0633 32.404C93.2499 32.6187 93.4879 32.7913 93.7773 32.922C94.0666 33.0527 94.4073 33.118 94.7993 33.118C95.3033 33.118 95.7139 33.0013 96.0313 32.768C96.3579 32.5347 96.5726 32.18 96.6753 31.704H97.8512ZM99.9248 31.718C99.9341 31.9793 99.9948 32.2033 100.107 32.39C100.219 32.5673 100.363 32.712 100.541 32.824C100.727 32.9267 100.933 33.0013 101.157 33.048C101.39 33.0947 101.628 33.118 101.871 33.118C102.057 33.118 102.253 33.104 102.459 33.076C102.664 33.048 102.851 32.9967 103.019 32.922C103.196 32.8473 103.341 32.74 103.453 32.6C103.565 32.4507 103.621 32.264 103.621 32.04C103.621 31.732 103.504 31.4987 103.271 31.34C103.037 31.1813 102.743 31.0553 102.389 30.962C102.043 30.8593 101.665 30.7707 101.255 30.696C100.844 30.612 100.461 30.5 100.107 30.36C99.7614 30.2107 99.4721 30.0053 99.2388 29.744C99.0054 29.4827 98.8888 29.1187 98.8888 28.652C98.8888 28.288 98.9681 27.9753 99.1268 27.714C99.2948 27.4527 99.5048 27.2427 99.7568 27.084C100.018 26.916 100.307 26.7947 100.625 26.72C100.951 26.636 101.273 26.594 101.591 26.594C102.001 26.594 102.379 26.6313 102.725 26.706C103.07 26.7713 103.373 26.8927 103.635 27.07C103.905 27.238 104.12 27.4713 104.279 27.77C104.437 28.0593 104.531 28.4233 104.559 28.862H103.369C103.35 28.6287 103.289 28.4373 103.187 28.288C103.084 28.1293 102.953 28.0033 102.795 27.91C102.636 27.8167 102.459 27.7513 102.263 27.714C102.076 27.6673 101.885 27.644 101.689 27.644C101.511 27.644 101.329 27.658 101.143 27.686C100.965 27.714 100.802 27.7653 100.653 27.84C100.503 27.9053 100.382 27.9987 100.289 28.12C100.195 28.232 100.149 28.3813 100.149 28.568C100.149 28.7733 100.219 28.946 100.359 29.086C100.508 29.2167 100.695 29.3287 100.919 29.422C101.143 29.506 101.395 29.5807 101.675 29.646C101.955 29.702 102.235 29.7627 102.515 29.828C102.813 29.8933 103.103 29.9727 103.383 30.066C103.672 30.1593 103.924 30.2853 104.139 30.444C104.363 30.5933 104.54 30.7847 104.671 31.018C104.811 31.2513 104.881 31.5407 104.881 31.886C104.881 32.3247 104.787 32.6887 104.601 32.978C104.423 33.2673 104.185 33.5007 103.887 33.678C103.597 33.8553 103.266 33.9767 102.893 34.042C102.529 34.1167 102.165 34.154 101.801 34.154C101.399 34.154 101.017 34.112 100.653 34.028C100.289 33.944 99.9668 33.8087 99.6868 33.622C99.4068 33.426 99.1828 33.174 99.0148 32.866C98.8468 32.5487 98.7534 32.166 98.7348 31.718H99.9248ZM111.223 29.688C111.204 29.408 111.139 29.142 111.027 28.89C110.924 28.638 110.779 28.4233 110.593 28.246C110.415 28.0593 110.201 27.9147 109.949 27.812C109.706 27.7 109.435 27.644 109.137 27.644C108.829 27.644 108.549 27.7 108.297 27.812C108.054 27.9147 107.844 28.0593 107.667 28.246C107.489 28.4327 107.349 28.652 107.247 28.904C107.144 29.1467 107.083 29.408 107.065 29.688H111.223ZM112.371 31.704C112.212 32.516 111.862 33.1273 111.321 33.538C110.779 33.9487 110.098 34.154 109.277 34.154C108.698 34.154 108.194 34.0607 107.765 33.874C107.345 33.6873 106.99 33.426 106.701 33.09C106.411 32.754 106.192 32.3527 106.043 31.886C105.903 31.4193 105.823 30.9107 105.805 30.36C105.805 29.8093 105.889 29.3053 106.057 28.848C106.225 28.3907 106.458 27.994 106.757 27.658C107.065 27.322 107.424 27.0607 107.835 26.874C108.255 26.6873 108.712 26.594 109.207 26.594C109.851 26.594 110.383 26.7293 110.803 27C111.232 27.2613 111.573 27.5973 111.825 28.008C112.086 28.4187 112.263 28.8667 112.357 29.352C112.459 29.8373 112.501 30.2993 112.483 30.738H107.065C107.055 31.0553 107.093 31.3587 107.177 31.648C107.261 31.928 107.396 32.18 107.583 32.404C107.769 32.6187 108.007 32.7913 108.297 32.922C108.586 33.0527 108.927 33.118 109.319 33.118C109.823 33.118 110.233 33.0013 110.551 32.768C110.877 32.5347 111.092 32.18 111.195 31.704H112.371ZM113.716 26.762H114.836V27.91H114.864C115.359 27.0327 116.143 26.594 117.216 26.594C117.692 26.594 118.089 26.6593 118.406 26.79C118.724 26.9207 118.98 27.1027 119.176 27.336C119.372 27.5693 119.508 27.8493 119.582 28.176C119.666 28.4933 119.708 28.848 119.708 29.24V34H118.518V29.1C118.518 28.652 118.388 28.2973 118.126 28.036C117.865 27.7747 117.506 27.644 117.048 27.644C116.684 27.644 116.367 27.7 116.096 27.812C115.835 27.924 115.616 28.0827 115.438 28.288C115.261 28.4933 115.126 28.736 115.032 29.016C114.948 29.2867 114.906 29.5853 114.906 29.912V34H113.716V26.762ZM123.148 26.762H124.59V27.812H123.148V32.306C123.148 32.446 123.157 32.558 123.176 32.642C123.204 32.726 123.25 32.7913 123.316 32.838C123.381 32.8847 123.47 32.9173 123.582 32.936C123.703 32.9453 123.857 32.95 124.044 32.95H124.59V34H123.68C123.372 34 123.106 33.9813 122.882 33.944C122.667 33.8973 122.49 33.818 122.35 33.706C122.219 33.594 122.121 33.4353 122.056 33.23C121.99 33.0247 121.958 32.754 121.958 32.418V27.812H120.726V26.762H121.958V24.592H123.148V26.762ZM31.122 50H29.736L27.454 41.6H27.426L25.116 50H23.73L21.168 40.004H22.526L24.486 48.32H24.514L26.754 40.004H28.196L30.408 48.32H30.436L32.466 40.004H33.796L31.122 50ZM34.932 46.388C34.932 46.8267 34.988 47.2187 35.1 47.564C35.2213 47.9 35.3846 48.1847 35.59 48.418C35.7953 48.642 36.0333 48.8147 36.304 48.936C36.584 49.0573 36.878 49.118 37.186 49.118C37.494 49.118 37.7833 49.0573 38.054 48.936C38.334 48.8147 38.5766 48.642 38.782 48.418C38.9873 48.1847 39.146 47.9 39.258 47.564C39.3793 47.2187 39.44 46.8267 39.44 46.388C39.44 45.9493 39.3793 45.562 39.258 45.226C39.146 44.8807 38.9873 44.5913 38.782 44.358C38.5766 44.1247 38.334 43.9473 38.054 43.826C37.7833 43.7047 37.494 43.644 37.186 43.644C36.878 43.644 36.584 43.7047 36.304 43.826C36.0333 43.9473 35.7953 44.1247 35.59 44.358C35.3846 44.5913 35.2213 44.8807 35.1 45.226C34.988 45.562 34.932 45.9493 34.932 46.388ZM33.672 46.388C33.672 45.856 33.7466 45.3613 33.896 44.904C34.0453 44.4373 34.2693 44.036 34.568 43.7C34.8666 43.3547 35.2353 43.084 35.674 42.888C36.1126 42.692 36.6166 42.594 37.186 42.594C37.7646 42.594 38.2686 42.692 38.698 42.888C39.1366 43.084 39.5053 43.3547 39.804 43.7C40.1026 44.036 40.3266 44.4373 40.476 44.904C40.6253 45.3613 40.7 45.856 40.7 46.388C40.7 46.92 40.6253 47.4147 40.476 47.872C40.3266 48.3293 40.1026 48.7307 39.804 49.076C39.5053 49.412 39.1366 49.678 38.698 49.874C38.2686 50.0607 37.7646 50.154 37.186 50.154C36.6166 50.154 36.1126 50.0607 35.674 49.874C35.2353 49.678 34.8666 49.412 34.568 49.076C34.2693 48.7307 34.0453 48.3293 33.896 47.872C33.7466 47.4147 33.672 46.92 33.672 46.388ZM42.061 42.762H43.181V44.288H43.209C43.4984 43.7 43.853 43.266 44.273 42.986C44.693 42.706 45.225 42.5753 45.869 42.594V43.854C45.393 43.854 44.987 43.9193 44.651 44.05C44.315 44.1807 44.0444 44.372 43.839 44.624C43.6337 44.876 43.4844 45.184 43.391 45.548C43.2977 45.9027 43.251 46.3133 43.251 46.78V50H42.061V42.762ZM46.8351 40.004H48.0251V50H46.8351V40.004ZM50.7367 46.444C50.7367 46.78 50.7787 47.1113 50.8627 47.438C50.956 47.7553 51.0913 48.04 51.2687 48.292C51.4553 48.544 51.6887 48.7447 51.9687 48.894C52.258 49.0433 52.594 49.118 52.9767 49.118C53.378 49.118 53.7187 49.0387 53.9987 48.88C54.2787 48.7213 54.5073 48.516 54.6847 48.264C54.862 48.0027 54.988 47.7087 55.0627 47.382C55.1467 47.0553 55.1887 46.724 55.1887 46.388C55.1887 46.0333 55.1467 45.6927 55.0627 45.366C54.9787 45.03 54.8433 44.736 54.6567 44.484C54.4793 44.232 54.246 44.0313 53.9567 43.882C53.6673 43.7233 53.3173 43.644 52.9067 43.644C52.5053 43.644 52.1647 43.7233 51.8847 43.882C51.6047 44.0407 51.3807 44.2507 51.2127 44.512C51.0447 44.7733 50.9233 45.072 50.8487 45.408C50.774 45.744 50.7367 46.0893 50.7367 46.444ZM56.3367 50H55.1467V49.02H55.1187C54.9227 49.4213 54.6147 49.7107 54.1947 49.888C53.7747 50.0653 53.3127 50.154 52.8087 50.154C52.2487 50.154 51.7587 50.0513 51.3387 49.846C50.928 49.6407 50.5827 49.3653 50.3027 49.02C50.032 48.6747 49.8267 48.2733 49.6867 47.816C49.5467 47.3587 49.4767 46.8733 49.4767 46.36C49.4767 45.8467 49.542 45.3613 49.6727 44.904C49.8127 44.4467 50.018 44.05 50.2887 43.714C50.5687 43.3687 50.914 43.098 51.3247 42.902C51.7447 42.6967 52.23 42.594 52.7807 42.594C52.9673 42.594 53.168 42.6127 53.3827 42.65C53.5973 42.6873 53.812 42.7527 54.0267 42.846C54.2413 42.93 54.442 43.0467 54.6287 43.196C54.8247 43.336 54.988 43.5133 55.1187 43.728H55.1467V40.004H56.3367V50ZM63.03 45.002C63.03 45.506 63.0953 46.0053 63.226 46.5C63.3566 46.9853 63.562 47.424 63.842 47.816C64.122 48.208 64.4813 48.5253 64.92 48.768C65.3586 49.0013 65.8813 49.118 66.488 49.118C67.0946 49.118 67.6173 49.0013 68.056 48.768C68.4946 48.5253 68.854 48.208 69.134 47.816C69.414 47.424 69.6193 46.9853 69.75 46.5C69.8806 46.0053 69.946 45.506 69.946 45.002C69.946 44.498 69.8806 44.0033 69.75 43.518C69.6193 43.0233 69.414 42.58 69.134 42.188C68.854 41.796 68.4946 41.4833 68.056 41.25C67.6173 41.0073 67.0946 40.886 66.488 40.886C65.8813 40.886 65.3586 41.0073 64.92 41.25C64.4813 41.4833 64.122 41.796 63.842 42.188C63.562 42.58 63.3566 43.0233 63.226 43.518C63.0953 44.0033 63.03 44.498 63.03 45.002ZM61.7 45.002C61.7 44.3207 61.798 43.6673 61.994 43.042C62.1993 42.4073 62.5026 41.8473 62.904 41.362C63.3053 40.8767 63.8046 40.4893 64.402 40.2C64.9993 39.9107 65.6946 39.766 66.488 39.766C67.2813 39.766 67.9766 39.9107 68.574 40.2C69.1713 40.4893 69.6706 40.8767 70.072 41.362C70.4733 41.8473 70.772 42.4073 70.968 43.042C71.1733 43.6673 71.276 44.3207 71.276 45.002C71.276 45.6833 71.1733 46.3413 70.968 46.976C70.772 47.6013 70.4733 48.1567 70.072 48.642C69.6706 49.1273 69.1713 49.5147 68.574 49.804C67.9766 50.084 67.2813 50.224 66.488 50.224C65.6946 50.224 64.9993 50.084 64.402 49.804C63.8046 49.5147 63.3053 49.1273 62.904 48.642C62.5026 48.1567 62.1993 47.6013 61.994 46.976C61.798 46.3413 61.7 45.6833 61.7 45.002ZM73.1907 43.812H71.9727V42.762H73.1907V41.684C73.1907 41.096 73.3587 40.6527 73.6947 40.354C74.04 40.046 74.5394 39.892 75.1927 39.892C75.3047 39.892 75.4307 39.9013 75.5707 39.92C75.72 39.9387 75.8507 39.9667 75.9627 40.004V41.04C75.86 41.0027 75.748 40.9793 75.6267 40.97C75.5054 40.9513 75.3934 40.942 75.2907 40.942C75.0014 40.942 74.7774 40.998 74.6187 41.11C74.46 41.222 74.3807 41.4367 74.3807 41.754V42.762H75.7807V43.812H74.3807V50H73.1907V43.812ZM89.9658 50H88.5798L86.2978 41.6H86.2698L83.9597 50H82.5738L80.0118 40.004H81.3698L83.3298 48.32H83.3578L85.5978 40.004H87.0397L89.2518 48.32H89.2798L91.3098 40.004H92.6398L89.9658 50ZM94.9607 41.46H93.7707V40.004H94.9607V41.46ZM93.7707 42.762H94.9607V50H93.7707V42.762ZM96.2162 49.09L100.584 43.812H96.4962V42.762H102.124V43.574L97.7002 48.95H102.32V50H96.2162V49.09ZM103.601 40.004H104.791V45.926L108.095 42.762H109.691L106.821 45.394L109.901 50H108.389L105.911 46.22L104.791 47.256V50H103.601V40.004ZM112.051 41.46H110.861V40.004H112.051V41.46ZM110.861 42.762H112.051V50H110.861V42.762ZM114.762 46.444C114.762 46.78 114.804 47.1113 114.888 47.438C114.981 47.7553 115.117 48.04 115.294 48.292C115.481 48.544 115.714 48.7447 115.994 48.894C116.283 49.0433 116.619 49.118 117.002 49.118C117.403 49.118 117.744 49.0387 118.024 48.88C118.304 48.7213 118.533 48.516 118.71 48.264C118.887 48.0027 119.013 47.7087 119.088 47.382C119.172 47.0553 119.214 46.724 119.214 46.388C119.214 46.0333 119.172 45.6927 119.088 45.366C119.004 45.03 118.869 44.736 118.682 44.484C118.505 44.232 118.271 44.0313 117.982 43.882C117.693 43.7233 117.343 43.644 116.932 43.644C116.531 43.644 116.19 43.7233 115.91 43.882C115.63 44.0407 115.406 44.2507 115.238 44.512C115.07 44.7733 114.949 45.072 114.874 45.408C114.799 45.744 114.762 46.0893 114.762 46.444ZM120.362 50H119.172V49.02H119.144C118.948 49.4213 118.64 49.7107 118.22 49.888C117.8 50.0653 117.338 50.154 116.834 50.154C116.274 50.154 115.784 50.0513 115.364 49.846C114.953 49.6407 114.608 49.3653 114.328 49.02C114.057 48.6747 113.852 48.2733 113.712 47.816C113.572 47.3587 113.502 46.8733 113.502 46.36C113.502 45.8467 113.567 45.3613 113.698 44.904C113.838 44.4467 114.043 44.05 114.314 43.714C114.594 43.3687 114.939 43.098 115.35 42.902C115.77 42.6967 116.255 42.594 116.806 42.594C116.993 42.594 117.193 42.6127 117.408 42.65C117.623 42.6873 117.837 42.7527 118.052 42.846C118.267 42.93 118.467 43.0467 118.654 43.196C118.85 43.336 119.013 43.5133 119.144 43.728H119.172V40.004H120.362V50ZM122.921 47.718C122.93 47.9793 122.991 48.2033 123.103 48.39C123.215 48.5673 123.36 48.712 123.537 48.824C123.724 48.9267 123.929 49.0013 124.153 49.048C124.386 49.0947 124.624 49.118 124.867 49.118C125.054 49.118 125.25 49.104 125.455 49.076C125.66 49.048 125.847 48.9967 126.015 48.922C126.192 48.8473 126.337 48.74 126.449 48.6C126.561 48.4507 126.617 48.264 126.617 48.04C126.617 47.732 126.5 47.4987 126.267 47.34C126.034 47.1813 125.74 47.0553 125.385 46.962C125.04 46.8593 124.662 46.7707 124.251 46.696C123.84 46.612 123.458 46.5 123.103 46.36C122.758 46.2107 122.468 46.0053 122.235 45.744C122.002 45.4827 121.885 45.1187 121.885 44.652C121.885 44.288 121.964 43.9753 122.123 43.714C122.291 43.4527 122.501 43.2427 122.753 43.084C123.014 42.916 123.304 42.7947 123.621 42.72C123.948 42.636 124.27 42.594 124.587 42.594C124.998 42.594 125.376 42.6313 125.721 42.706C126.066 42.7713 126.37 42.8927 126.631 43.07C126.902 43.238 127.116 43.4713 127.275 43.77C127.434 44.0593 127.527 44.4233 127.555 44.862H126.365C126.346 44.6287 126.286 44.4373 126.183 44.288C126.08 44.1293 125.95 44.0033 125.791 43.91C125.632 43.8167 125.455 43.7513 125.259 43.714C125.072 43.6673 124.881 43.644 124.685 43.644C124.508 43.644 124.326 43.658 124.139 43.686C123.962 43.714 123.798 43.7653 123.649 43.84C123.5 43.9053 123.378 43.9987 123.285 44.12C123.192 44.232 123.145 44.3813 123.145 44.568C123.145 44.7733 123.215 44.946 123.355 45.086C123.504 45.2167 123.691 45.3287 123.915 45.422C124.139 45.506 124.391 45.5807 124.671 45.646C124.951 45.702 125.231 45.7627 125.511 45.828C125.81 45.8933 126.099 45.9727 126.379 46.066C126.668 46.1593 126.92 46.2853 127.135 46.444C127.359 46.5933 127.536 46.7847 127.667 47.018C127.807 47.2513 127.877 47.5407 127.877 47.886C127.877 48.3247 127.784 48.6887 127.597 48.978C127.42 49.2673 127.182 49.5007 126.883 49.678C126.594 49.8553 126.262 49.9767 125.889 50.042C125.525 50.1167 125.161 50.154 124.797 50.154C124.396 50.154 124.013 50.112 123.649 50.028C123.285 49.944 122.963 49.8087 122.683 49.622C122.403 49.426 122.179 49.174 122.011 48.866C121.843 48.5487 121.75 48.166 121.731 47.718H122.921Z" fill="#D4FF7A"/>
<g clip-path="url(#clip0_1702_12270)">
<path d="M890.691 34.4871C889.147 35.997 887.247 36.7435 885.007 36.7435C882.751 36.7435 880.851 35.997 879.324 34.4871C877.763 32.9773 877 31.1111 877 28.8717C877 26.6324 877.763 24.7662 879.307 23.2563C880.851 21.7465 882.751 21 885.007 21C887.264 21 889.164 21.7465 890.691 23.2563C892.235 24.7662 892.998 26.6324 892.998 28.8717C892.998 31.1111 892.235 32.9773 890.691 34.4871ZM889.537 28.8717C889.537 27.5145 889.096 26.3609 888.231 25.3939C887.366 24.4269 886.28 23.9519 885.007 23.9519C883.735 23.9519 882.666 24.4269 881.784 25.3939C880.919 26.3609 880.478 27.5145 880.478 28.8717C880.478 30.2289 880.919 31.3826 881.784 32.3326C882.649 33.2826 883.735 33.7577 885.007 33.7577C886.28 33.7577 887.349 33.2826 888.231 32.3326C889.096 31.3995 889.537 30.2459 889.537 28.8717Z" fill="#D4FF7A"/>
<path d="M898.207 30.1102L900.904 21.3393H904.45L907.13 30.1102L910.167 21.3393H913.848L908.538 36.5738H906.011L902.668 25.9877L899.36 36.5738H896.832L891.522 21.3563H895.204L898.207 30.1102Z" fill="#D4FF7A"/>
<path d="M926.062 34.4871C924.519 35.997 922.619 36.7435 920.379 36.7435C918.123 36.7435 916.223 35.997 914.696 34.4871C913.152 32.9773 912.389 31.1111 912.389 28.8717C912.389 26.6324 913.152 24.7662 914.696 23.2563C916.223 21.7465 918.123 21 920.379 21C922.636 21 924.536 21.7465 926.062 23.2563C927.606 24.7662 928.37 26.6324 928.37 28.8717C928.37 31.1111 927.606 32.9773 926.062 34.4871ZM924.909 28.8717C924.909 27.5145 924.468 26.3609 923.603 25.3939C922.737 24.4269 921.652 23.9519 920.379 23.9519C919.107 23.9519 918.038 24.4269 917.156 25.3939C916.291 26.3609 915.85 27.5145 915.85 28.8717C915.85 30.2289 916.291 31.3826 917.156 32.3326C918.021 33.2826 919.107 33.7577 920.379 33.7577C921.652 33.7577 922.72 33.2826 923.603 32.3326C924.468 31.3995 924.909 30.2459 924.909 28.8717Z" fill="#D4FF7A"/>
<path d="M933.578 30.1102L936.275 21.3393H939.821L942.501 30.1102L945.538 21.3393H949.219L943.892 36.5738H941.365L938.023 25.9877L934.714 36.5738H932.187L926.894 21.3563H930.575L933.578 30.1102Z" fill="#D4FF7A"/>
</g>
<path d="M22.764 375.388C22.764 375.827 22.82 376.219 22.932 376.564C23.0533 376.9 23.2167 377.185 23.422 377.418C23.6273 377.642 23.8653 377.815 24.136 377.936C24.416 378.057 24.71 378.118 25.018 378.118C25.326 378.118 25.6153 378.057 25.886 377.936C26.166 377.815 26.4087 377.642 26.614 377.418C26.8193 377.185 26.978 376.9 27.09 376.564C27.2113 376.219 27.272 375.827 27.272 375.388C27.272 374.949 27.2113 374.562 27.09 374.226C26.978 373.881 26.8193 373.591 26.614 373.358C26.4087 373.125 26.166 372.947 25.886 372.826C25.6153 372.705 25.326 372.644 25.018 372.644C24.71 372.644 24.416 372.705 24.136 372.826C23.8653 372.947 23.6273 373.125 23.422 373.358C23.2167 373.591 23.0533 373.881 22.932 374.226C22.82 374.562 22.764 374.949 22.764 375.388ZM21.504 375.388C21.504 374.856 21.5787 374.361 21.728 373.904C21.8773 373.437 22.1013 373.036 22.4 372.7C22.6987 372.355 23.0673 372.084 23.506 371.888C23.9447 371.692 24.4487 371.594 25.018 371.594C25.5967 371.594 26.1007 371.692 26.53 371.888C26.9687 372.084 27.3373 372.355 27.636 372.7C27.9347 373.036 28.1587 373.437 28.308 373.904C28.4573 374.361 28.532 374.856 28.532 375.388C28.532 375.92 28.4573 376.415 28.308 376.872C28.1587 377.329 27.9347 377.731 27.636 378.076C27.3373 378.412 26.9687 378.678 26.53 378.874C26.1007 379.061 25.5967 379.154 25.018 379.154C24.4487 379.154 23.9447 379.061 23.506 378.874C23.0673 378.678 22.6987 378.412 22.4 378.076C22.1013 377.731 21.8773 377.329 21.728 376.872C21.5787 376.415 21.504 375.92 21.504 375.388ZM37.1031 379H35.8431L34.3731 373.246H34.3451L32.8891 379H31.6011L29.2771 371.762H30.5931L32.2311 377.684H32.2591L33.7151 371.762H35.0171L36.5291 377.684H36.5571L38.1811 371.762H39.4131L37.1031 379ZM41.4124 375.388C41.4124 375.827 41.4684 376.219 41.5804 376.564C41.7018 376.9 41.8651 377.185 42.0704 377.418C42.2758 377.642 42.5138 377.815 42.7844 377.936C43.0644 378.057 43.3584 378.118 43.6664 378.118C43.9744 378.118 44.2638 378.057 44.5344 377.936C44.8144 377.815 45.0571 377.642 45.2624 377.418C45.4678 377.185 45.6264 376.9 45.7384 376.564C45.8598 376.219 45.9204 375.827 45.9204 375.388C45.9204 374.949 45.8598 374.562 45.7384 374.226C45.6264 373.881 45.4678 373.591 45.2624 373.358C45.0571 373.125 44.8144 372.947 44.5344 372.826C44.2638 372.705 43.9744 372.644 43.6664 372.644C43.3584 372.644 43.0644 372.705 42.7844 372.826C42.5138 372.947 42.2758 373.125 42.0704 373.358C41.8651 373.591 41.7018 373.881 41.5804 374.226C41.4684 374.562 41.4124 374.949 41.4124 375.388ZM40.1524 375.388C40.1524 374.856 40.2271 374.361 40.3764 373.904C40.5258 373.437 40.7498 373.036 41.0484 372.7C41.3471 372.355 41.7158 372.084 42.1544 371.888C42.5931 371.692 43.0971 371.594 43.6664 371.594C44.2451 371.594 44.7491 371.692 45.1784 371.888C45.6171 372.084 45.9858 372.355 46.2844 372.7C46.5831 373.036 46.8071 373.437 46.9564 373.904C47.1058 374.361 47.1804 374.856 47.1804 375.388C47.1804 375.92 47.1058 376.415 46.9564 376.872C46.8071 377.329 46.5831 377.731 46.2844 378.076C45.9858 378.412 45.6171 378.678 45.1784 378.874C44.7491 379.061 44.2451 379.154 43.6664 379.154C43.0971 379.154 42.5931 379.061 42.1544 378.874C41.7158 378.678 41.3471 378.412 41.0484 378.076C40.7498 377.731 40.5258 377.329 40.3764 376.872C40.2271 376.415 40.1524 375.92 40.1524 375.388ZM55.7515 379H54.4915L53.0215 373.246H52.9935L51.5375 379H50.2495L47.9255 371.762H49.2415L50.8795 377.684H50.9075L52.3635 371.762H53.6655L55.1775 377.684H55.2055L56.8295 371.762H58.0615L55.7515 379ZM58.6933 377.446H60.2473V379H58.6933V377.446ZM63.5837 370.46H62.3937V369.004H63.5837V370.46ZM62.3937 371.762H63.5837V379H62.3937V371.762ZM66.2953 375.388C66.2953 375.827 66.3513 376.219 66.4633 376.564C66.5846 376.9 66.7479 377.185 66.9533 377.418C67.1586 377.642 67.3966 377.815 67.6673 377.936C67.9473 378.057 68.2413 378.118 68.5493 378.118C68.8573 378.118 69.1466 378.057 69.4173 377.936C69.6973 377.815 69.9399 377.642 70.1453 377.418C70.3506 377.185 70.5093 376.9 70.6213 376.564C70.7426 376.219 70.8033 375.827 70.8033 375.388C70.8033 374.949 70.7426 374.562 70.6213 374.226C70.5093 373.881 70.3506 373.591 70.1453 373.358C69.9399 373.125 69.6973 372.947 69.4173 372.826C69.1466 372.705 68.8573 372.644 68.5493 372.644C68.2413 372.644 67.9473 372.705 67.6673 372.826C67.3966 372.947 67.1586 373.125 66.9533 373.358C66.7479 373.591 66.5846 373.881 66.4633 374.226C66.3513 374.562 66.2953 374.949 66.2953 375.388ZM65.0353 375.388C65.0353 374.856 65.1099 374.361 65.2593 373.904C65.4086 373.437 65.6326 373.036 65.9313 372.7C66.2299 372.355 66.5986 372.084 67.0373 371.888C67.4759 371.692 67.9799 371.594 68.5493 371.594C69.1279 371.594 69.6319 371.692 70.0613 371.888C70.4999 372.084 70.8686 372.355 71.1673 372.7C71.4659 373.036 71.6899 373.437 71.8393 373.904C71.9886 374.361 72.0633 374.856 72.0633 375.388C72.0633 375.92 71.9886 376.415 71.8393 376.872C71.6899 377.329 71.4659 377.731 71.1673 378.076C70.8686 378.412 70.4999 378.678 70.0613 378.874C69.6319 379.061 69.1279 379.154 68.5493 379.154C67.9799 379.154 67.4759 379.061 67.0373 378.874C66.5986 378.678 66.2299 378.412 65.9313 378.076C65.6326 377.731 65.4086 377.329 65.2593 376.872C65.1099 376.415 65.0353 375.92 65.0353 375.388Z" fill="#D4FF7A"/>
<path d="M851.891 372.302H854.551C855.307 372.302 855.848 372.171 856.175 371.91C856.511 371.639 856.679 371.238 856.679 370.706C856.679 370.351 856.623 370.071 856.511 369.866C856.399 369.661 856.245 369.502 856.049 369.39C855.853 369.278 855.624 369.208 855.363 369.18C855.111 369.143 854.84 369.124 854.551 369.124H851.891V372.302ZM850.561 368.004H854.187C854.401 368.004 854.63 368.009 854.873 368.018C855.125 368.018 855.372 368.032 855.615 368.06C855.857 368.079 856.081 368.111 856.287 368.158C856.501 368.205 856.683 368.275 856.833 368.368C857.159 368.564 857.435 368.835 857.659 369.18C857.892 369.525 858.009 369.95 858.009 370.454C858.009 370.986 857.878 371.448 857.617 371.84C857.365 372.223 857.001 372.507 856.525 372.694V372.722C857.141 372.853 857.612 373.133 857.939 373.562C858.265 373.991 858.429 374.514 858.429 375.13C858.429 375.494 858.363 375.849 858.233 376.194C858.102 376.539 857.906 376.847 857.645 377.118C857.393 377.379 857.075 377.594 856.693 377.762C856.319 377.921 855.885 378 855.391 378H850.561V368.004ZM851.891 376.88H855.223C855.811 376.88 856.268 376.721 856.595 376.404C856.931 376.087 857.099 375.648 857.099 375.088C857.099 374.761 857.038 374.491 856.917 374.276C856.795 374.061 856.632 373.893 856.427 373.772C856.231 373.641 856.002 373.553 855.741 373.506C855.479 373.45 855.209 373.422 854.929 373.422H851.891V376.88ZM865.941 378H864.821V376.852H864.793C864.541 377.3 864.219 377.631 863.827 377.846C863.435 378.051 862.973 378.154 862.441 378.154C861.965 378.154 861.568 378.093 861.251 377.972C860.933 377.841 860.677 377.659 860.481 377.426C860.285 377.193 860.145 376.917 860.061 376.6C859.986 376.273 859.949 375.914 859.949 375.522V370.762H861.139V375.662C861.139 376.11 861.269 376.465 861.531 376.726C861.792 376.987 862.151 377.118 862.609 377.118C862.973 377.118 863.285 377.062 863.547 376.95C863.817 376.838 864.041 376.679 864.219 376.474C864.396 376.269 864.527 376.031 864.611 375.76C864.704 375.48 864.751 375.177 864.751 374.85V370.762H865.941V378ZM868.988 369.46H867.798V368.004H868.988V369.46ZM867.798 370.762H868.988V378H867.798V370.762ZM870.902 368.004H872.092V378H870.902V368.004ZM875.587 370.762H877.029V371.812H875.587V376.306C875.587 376.446 875.596 376.558 875.615 376.642C875.643 376.726 875.69 376.791 875.755 376.838C875.82 376.885 875.909 376.917 876.021 376.936C876.142 376.945 876.296 376.95 876.483 376.95H877.029V378H876.119C875.811 378 875.545 377.981 875.321 377.944C875.106 377.897 874.929 377.818 874.789 377.706C874.658 377.594 874.56 377.435 874.495 377.23C874.43 377.025 874.397 376.754 874.397 376.418V371.812H873.165V370.762H874.397V368.592H875.587V370.762ZM882.29 368.004H883.48V371.742H883.508C883.704 371.341 884.012 371.051 884.432 370.874C884.852 370.687 885.314 370.594 885.818 370.594C886.378 370.594 886.863 370.697 887.274 370.902C887.694 371.107 888.039 371.387 888.31 371.742C888.59 372.087 888.8 372.489 888.94 372.946C889.08 373.403 889.15 373.889 889.15 374.402C889.15 374.915 889.08 375.401 888.94 375.858C888.809 376.315 888.604 376.717 888.324 377.062C888.053 377.398 887.708 377.664 887.288 377.86C886.877 378.056 886.396 378.154 885.846 378.154C885.668 378.154 885.468 378.135 885.244 378.098C885.029 378.061 884.814 378 884.6 377.916C884.385 377.832 884.18 377.72 883.984 377.58C883.797 377.431 883.638 377.249 883.508 377.034H883.48V378H882.29V368.004ZM887.89 374.318C887.89 373.982 887.843 373.655 887.75 373.338C887.666 373.011 887.53 372.722 887.344 372.47C887.166 372.218 886.933 372.017 886.644 371.868C886.364 371.719 886.032 371.644 885.65 371.644C885.248 371.644 884.908 371.723 884.628 371.882C884.348 372.041 884.119 372.251 883.942 372.512C883.764 372.764 883.634 373.053 883.55 373.38C883.475 373.707 883.438 374.038 883.438 374.374C883.438 374.729 883.48 375.074 883.564 375.41C883.648 375.737 883.778 376.026 883.956 376.278C884.142 376.53 884.38 376.735 884.67 376.894C884.959 377.043 885.309 377.118 885.72 377.118C886.13 377.118 886.471 377.039 886.742 376.88C887.022 376.721 887.246 376.511 887.414 376.25C887.582 375.989 887.703 375.69 887.778 375.354C887.852 375.018 887.89 374.673 887.89 374.318ZM893.388 378.966C893.248 379.321 893.108 379.619 892.968 379.862C892.838 380.105 892.688 380.301 892.52 380.45C892.362 380.609 892.18 380.721 891.974 380.786C891.778 380.861 891.55 380.898 891.288 380.898C891.148 380.898 891.008 380.889 890.868 380.87C890.728 380.851 890.593 380.819 890.462 380.772V379.68C890.565 379.727 890.682 379.764 890.812 379.792C890.952 379.829 891.069 379.848 891.162 379.848C891.405 379.848 891.606 379.787 891.764 379.666C891.932 379.554 892.058 379.391 892.142 379.176L892.632 377.958L889.762 370.762H891.106L893.22 376.684H893.248L895.278 370.762H896.538L893.388 378.966ZM910.669 378H909.283L907.001 369.6H906.973L904.663 378H903.277L900.715 368.004H902.073L904.033 376.32H904.061L906.301 368.004H907.743L909.955 376.32H909.983L912.013 368.004H913.343L910.669 378ZM915.664 369.46H914.474V368.004H915.664V369.46ZM914.474 370.762H915.664V378H914.474V370.762ZM916.919 377.09L921.287 371.812H917.199V370.762H922.827V371.574L918.403 376.95H923.023V378H916.919V377.09ZM924.304 368.004H925.494V373.926L928.798 370.762H930.394L927.524 373.394L930.604 378H929.092L926.614 374.22L925.494 375.256V378H924.304V368.004ZM932.754 369.46H931.564V368.004H932.754V369.46ZM931.564 370.762H932.754V378H931.564V370.762ZM935.465 374.444C935.465 374.78 935.507 375.111 935.591 375.438C935.685 375.755 935.82 376.04 935.997 376.292C936.184 376.544 936.417 376.745 936.697 376.894C936.987 377.043 937.323 377.118 937.705 377.118C938.107 377.118 938.447 377.039 938.727 376.88C939.007 376.721 939.236 376.516 939.413 376.264C939.591 376.003 939.717 375.709 939.791 375.382C939.875 375.055 939.917 374.724 939.917 374.388C939.917 374.033 939.875 373.693 939.791 373.366C939.707 373.03 939.572 372.736 939.385 372.484C939.208 372.232 938.975 372.031 938.685 371.882C938.396 371.723 938.046 371.644 937.635 371.644C937.234 371.644 936.893 371.723 936.613 371.882C936.333 372.041 936.109 372.251 935.941 372.512C935.773 372.773 935.652 373.072 935.577 373.408C935.503 373.744 935.465 374.089 935.465 374.444ZM941.065 378H939.875V377.02H939.847C939.651 377.421 939.343 377.711 938.923 377.888C938.503 378.065 938.041 378.154 937.537 378.154C936.977 378.154 936.487 378.051 936.067 377.846C935.657 377.641 935.311 377.365 935.031 377.02C934.761 376.675 934.555 376.273 934.415 375.816C934.275 375.359 934.205 374.873 934.205 374.36C934.205 373.847 934.271 373.361 934.401 372.904C934.541 372.447 934.747 372.05 935.017 371.714C935.297 371.369 935.643 371.098 936.053 370.902C936.473 370.697 936.959 370.594 937.509 370.594C937.696 370.594 937.897 370.613 938.111 370.65C938.326 370.687 938.541 370.753 938.755 370.846C938.97 370.93 939.171 371.047 939.357 371.196C939.553 371.336 939.717 371.513 939.847 371.728H939.875V368.004H941.065V378ZM943.624 375.718C943.633 375.979 943.694 376.203 943.806 376.39C943.918 376.567 944.063 376.712 944.24 376.824C944.427 376.927 944.632 377.001 944.856 377.048C945.089 377.095 945.327 377.118 945.57 377.118C945.757 377.118 945.953 377.104 946.158 377.076C946.363 377.048 946.55 376.997 946.718 376.922C946.895 376.847 947.04 376.74 947.152 376.6C947.264 376.451 947.32 376.264 947.32 376.04C947.32 375.732 947.203 375.499 946.97 375.34C946.737 375.181 946.443 375.055 946.088 374.962C945.743 374.859 945.365 374.771 944.954 374.696C944.543 374.612 944.161 374.5 943.806 374.36C943.461 374.211 943.171 374.005 942.938 373.744C942.705 373.483 942.588 373.119 942.588 372.652C942.588 372.288 942.667 371.975 942.826 371.714C942.994 371.453 943.204 371.243 943.456 371.084C943.717 370.916 944.007 370.795 944.324 370.72C944.651 370.636 944.973 370.594 945.29 370.594C945.701 370.594 946.079 370.631 946.424 370.706C946.769 370.771 947.073 370.893 947.334 371.07C947.605 371.238 947.819 371.471 947.978 371.77C948.137 372.059 948.23 372.423 948.258 372.862H947.068C947.049 372.629 946.989 372.437 946.886 372.288C946.783 372.129 946.653 372.003 946.494 371.91C946.335 371.817 946.158 371.751 945.962 371.714C945.775 371.667 945.584 371.644 945.388 371.644C945.211 371.644 945.029 371.658 944.842 371.686C944.665 371.714 944.501 371.765 944.352 371.84C944.203 371.905 944.081 371.999 943.988 372.12C943.895 372.232 943.848 372.381 943.848 372.568C943.848 372.773 943.918 372.946 944.058 373.086C944.207 373.217 944.394 373.329 944.618 373.422C944.842 373.506 945.094 373.581 945.374 373.646C945.654 373.702 945.934 373.763 946.214 373.828C946.513 373.893 946.802 373.973 947.082 374.066C947.371 374.159 947.623 374.285 947.838 374.444C948.062 374.593 948.239 374.785 948.37 375.018C948.51 375.251 948.58 375.541 948.58 375.886C948.58 376.325 948.487 376.689 948.3 376.978C948.123 377.267 947.885 377.501 947.586 377.678C947.297 377.855 946.965 377.977 946.592 378.042C946.228 378.117 945.864 378.154 945.5 378.154C945.099 378.154 944.716 378.112 944.352 378.028C943.988 377.944 943.666 377.809 943.386 377.622C943.106 377.426 942.882 377.174 942.714 376.866C942.546 376.549 942.453 376.166 942.434 375.718H943.624Z" fill="#D4FF7A"/>
<path d="M941.474 342.5C942.396 342.498 943.31 342.677 944.163 343.029C945.015 343.381 945.79 343.898 946.443 344.55C947.096 345.203 947.614 345.978 947.967 346.831C948.32 347.684 948.501 348.598 948.5 349.522C948.505 353.353 945.367 356.486 941.51 356.5C937.665 356.515 934.491 353.345 934.5 349.499C934.509 345.653 937.645 342.506 941.474 342.5ZM939.537 351.456L943.468 351.456L943.468 347.546L939.537 347.546L939.537 351.456ZM934.846 350.265C935.16 353.571 938.022 355.98 940.682 356.139C940.51 355.836 940.315 355.542 940.169 355.226C939.705 354.216 939.5 353.135 939.371 352.04C939.344 351.803 939.293 351.681 939.014 351.646C937.547 351.444 936.091 351.201 934.846 350.262L934.846 350.265ZM948.161 348.733C947.937 345.767 944.607 342.463 942.326 342.898C942.449 343.097 942.583 343.292 942.693 343.496C943.263 344.568 943.479 345.738 943.629 346.926C943.662 347.19 943.717 347.323 944.034 347.367C945.475 347.557 946.91 347.797 948.161 348.73L948.161 348.733ZM940.731 342.842C937.371 343.149 934.984 346.144 934.879 348.711C936.191 347.735 937.742 347.541 939.307 347.305C939.541 345.756 939.731 344.19 940.731 342.839L940.731 342.842ZM942.28 356.154C945.437 355.883 947.964 353.097 948.14 350.285C946.822 351.267 945.257 351.466 943.694 351.702C943.463 353.252 943.271 354.804 942.28 356.15L942.28 356.154ZM939.597 351.761C939.658 352.16 939.705 352.559 939.782 352.953C939.966 353.906 940.175 354.857 940.731 355.679C941.219 356.402 941.766 356.424 942.247 355.706C943.043 354.517 943.213 353.137 943.408 351.761L939.597 351.761ZM943.407 347.238C943.346 346.833 943.305 346.433 943.224 346.042C943.023 345.067 942.826 344.085 942.221 343.258C941.749 342.609 941.229 342.6 940.779 343.263C939.967 344.459 939.797 345.848 939.599 347.238L943.407 347.238ZM943.754 351.404C944.082 351.359 944.393 351.325 944.698 351.271C945.715 351.086 946.733 350.884 947.619 350.311C948.426 349.789 948.421 349.179 947.597 348.68C946.418 347.972 945.093 347.768 943.752 347.603L943.754 351.404ZM939.248 347.598C938.913 347.646 938.58 347.682 938.25 347.742C937.245 347.924 936.245 348.136 935.371 348.699C934.595 349.203 934.564 349.826 935.362 350.273C936.024 350.643 936.77 350.884 937.502 351.103C938.066 351.272 938.667 351.318 939.248 351.418L939.248 347.598Z" fill="#D4FF7A" stroke="#D4FF7A" stroke-width="0.4375"/>
<path d="M476.624 168.634L485.154 163.711C485.368 163.588 485.631 163.588 485.844 163.711L494.375 168.634C494.588 168.758 494.72 168.985 494.72 169.232V179.078C494.72 179.324 494.588 179.552 494.375 179.676L485.844 184.599C485.631 184.722 485.368 184.722 485.154 184.599L476.624 179.676C476.411 179.552 476.279 179.325 476.279 179.078V169.232C476.279 168.985 476.411 168.758 476.624 168.634Z" fill="#D4FF7A"/>
<path d="M507.677 173.119L497.486 155.394C497.115 154.753 496.432 154.281 495.691 154.281H475.307C474.567 154.281 473.883 154.753 473.512 155.394L463.321 173.08C462.95 173.721 462.95 174.53 463.321 175.171L473.512 192.751C473.883 193.392 474.567 193.719 475.307 193.719H495.691C496.431 193.719 497.115 193.402 497.485 192.761L507.677 175.152C508.048 174.511 508.048 173.76 507.677 173.119ZM499.238 181.642C499.238 181.903 499.081 182.144 498.855 182.275L485.873 189.762C485.647 189.892 485.364 189.892 485.139 189.762L472.146 182.275C471.92 182.144 471.763 181.903 471.763 181.642V166.667C471.763 166.406 471.918 166.166 472.144 166.035L485.126 158.548C485.352 158.417 485.634 158.417 485.86 158.548L498.853 166.035C499.079 166.166 499.238 166.406 499.238 166.667V181.642Z" fill="#D4FF7A"/>
<path d="M395.922 224.904H411.178V227.38H398.862V234.405H410.343V236.881H398.862V244.524H411.271V247H395.922V224.904ZM427.621 231.372C427.456 229.784 426.878 228.639 425.888 227.937C424.918 227.215 423.67 226.854 422.143 226.854C421.524 226.854 420.916 226.916 420.317 227.04C419.719 227.164 419.183 227.37 418.708 227.659C418.254 227.948 417.883 228.34 417.594 228.835C417.326 229.309 417.192 229.907 417.192 230.63C417.192 231.31 417.388 231.867 417.78 232.301C418.192 232.713 418.729 233.054 419.389 233.322C420.07 233.59 420.833 233.817 421.679 234.003C422.525 234.168 423.381 234.353 424.248 234.56C425.135 234.766 426.001 235.014 426.847 235.302C427.693 235.571 428.446 235.942 429.106 236.416C429.787 236.891 430.323 237.489 430.715 238.211C431.128 238.933 431.334 239.841 431.334 240.935C431.334 242.111 431.066 243.121 430.53 243.967C430.014 244.793 429.343 245.473 428.518 246.01C427.693 246.525 426.765 246.897 425.733 247.124C424.722 247.371 423.711 247.495 422.7 247.495C421.462 247.495 420.286 247.34 419.172 247.031C418.079 246.721 417.109 246.257 416.263 245.638C415.438 244.999 414.778 244.194 414.283 243.225C413.808 242.234 413.571 241.069 413.571 239.728H416.356C416.356 240.656 416.532 241.461 416.882 242.141C417.254 242.802 417.728 243.348 418.306 243.782C418.904 244.215 419.595 244.535 420.379 244.741C421.163 244.947 421.968 245.05 422.793 245.05C423.453 245.05 424.113 244.989 424.774 244.865C425.454 244.741 426.063 244.535 426.599 244.246C427.136 243.936 427.569 243.524 427.899 243.008C428.229 242.492 428.394 241.832 428.394 241.027C428.394 240.264 428.188 239.645 427.775 239.171C427.383 238.696 426.847 238.314 426.166 238.026C425.506 237.716 424.753 237.469 423.907 237.283C423.061 237.097 422.195 236.912 421.308 236.726C420.441 236.52 419.585 236.293 418.739 236.045C417.893 235.777 417.13 235.436 416.449 235.024C415.789 234.591 415.253 234.044 414.84 233.384C414.448 232.703 414.252 231.857 414.252 230.846C414.252 229.732 414.479 228.773 414.933 227.968C415.387 227.143 415.985 226.472 416.728 225.957C417.491 225.42 418.347 225.028 419.296 224.781C420.266 224.513 421.256 224.378 422.267 224.378C423.402 224.378 424.454 224.513 425.424 224.781C426.393 225.049 427.239 225.472 427.961 226.05C428.704 226.627 429.281 227.36 429.694 228.247C430.127 229.113 430.365 230.155 430.406 231.372H427.621ZM434.907 224.904H437.846V244.524H449.544V247H434.907V224.904ZM454.454 228.123H451.824V224.904H454.454V228.123ZM451.824 231.001H454.454V247H451.824V231.001ZM458.529 231.001H461.005V233.538H461.067C462.16 231.599 463.893 230.63 466.266 230.63C467.318 230.63 468.195 230.774 468.896 231.063C469.597 231.352 470.165 231.754 470.598 232.27C471.031 232.785 471.33 233.404 471.495 234.126C471.681 234.828 471.774 235.612 471.774 236.478V247H469.144V236.169C469.144 235.179 468.855 234.395 468.277 233.817C467.699 233.239 466.905 232.95 465.894 232.95C465.09 232.95 464.388 233.074 463.79 233.322C463.212 233.569 462.727 233.92 462.335 234.374C461.943 234.828 461.644 235.364 461.438 235.983C461.252 236.581 461.159 237.242 461.159 237.964V247H458.529V231.001ZM479.376 231.001H482.564V233.322H479.376V243.256C479.376 243.565 479.397 243.813 479.438 243.998C479.5 244.184 479.603 244.328 479.748 244.431C479.892 244.535 480.088 244.607 480.336 244.648C480.604 244.669 480.944 244.679 481.357 244.679H482.564V247H480.552C479.871 247 479.283 246.959 478.788 246.876C478.314 246.773 477.922 246.598 477.612 246.35C477.324 246.103 477.107 245.752 476.963 245.298C476.818 244.844 476.746 244.246 476.746 243.503V233.322H474.023V231.001H476.746V226.204H479.376V231.001ZM504.961 236.138C504.755 235.127 504.321 234.343 503.661 233.786C503.001 233.229 502.114 232.95 501 232.95C500.051 232.95 499.257 233.126 498.617 233.477C497.977 233.827 497.462 234.291 497.07 234.869C496.698 235.447 496.43 236.117 496.265 236.881C496.1 237.623 496.018 238.397 496.018 239.202C496.018 239.944 496.1 240.666 496.265 241.368C496.451 242.069 496.729 242.698 497.101 243.256C497.472 243.792 497.957 244.225 498.555 244.555C499.153 244.885 499.865 245.05 500.69 245.05C501.99 245.05 503.001 244.71 503.723 244.029C504.466 243.348 504.92 242.389 505.085 241.151H507.777C507.488 243.132 506.746 244.658 505.549 245.731C504.373 246.804 502.764 247.34 500.721 247.34C499.504 247.34 498.421 247.144 497.472 246.752C496.544 246.36 495.76 245.803 495.12 245.081C494.501 244.359 494.027 243.503 493.697 242.513C493.387 241.502 493.232 240.398 493.232 239.202C493.232 238.005 493.387 236.891 493.697 235.859C494.006 234.807 494.47 233.899 495.089 233.136C495.729 232.352 496.523 231.744 497.472 231.31C498.421 230.856 499.525 230.63 500.783 230.63C501.691 230.63 502.537 230.743 503.321 230.97C504.125 231.176 504.827 231.506 505.425 231.96C506.044 232.414 506.55 232.992 506.942 233.693C507.334 234.374 507.581 235.189 507.684 236.138H504.961ZM512.639 239.016C512.639 239.986 512.763 240.852 513.01 241.615C513.279 242.358 513.64 242.987 514.093 243.503C514.547 243.998 515.073 244.38 515.672 244.648C516.291 244.916 516.94 245.05 517.621 245.05C518.302 245.05 518.942 244.916 519.54 244.648C520.159 244.38 520.695 243.998 521.149 243.503C521.603 242.987 521.954 242.358 522.201 241.615C522.47 240.852 522.604 239.986 522.604 239.016C522.604 238.046 522.47 237.19 522.201 236.447C521.954 235.684 521.603 235.044 521.149 234.529C520.695 234.013 520.159 233.621 519.54 233.353C518.942 233.085 518.302 232.95 517.621 232.95C516.94 232.95 516.291 233.085 515.672 233.353C515.073 233.621 514.547 234.013 514.093 234.529C513.64 235.044 513.279 235.684 513.01 236.447C512.763 237.19 512.639 238.046 512.639 239.016ZM509.854 239.016C509.854 237.84 510.019 236.747 510.349 235.736C510.679 234.704 511.174 233.817 511.834 233.074C512.495 232.311 513.309 231.713 514.279 231.279C515.249 230.846 516.363 230.63 517.621 230.63C518.9 230.63 520.014 230.846 520.963 231.279C521.933 231.713 522.748 232.311 523.408 233.074C524.068 233.817 524.564 234.704 524.894 235.736C525.224 236.747 525.389 237.84 525.389 239.016C525.389 240.192 525.224 241.285 524.894 242.296C524.564 243.307 524.068 244.194 523.408 244.958C522.748 245.7 521.933 246.288 520.963 246.721C520.014 247.134 518.9 247.34 517.621 247.34C516.363 247.34 515.249 247.134 514.279 246.721C513.309 246.288 512.495 245.7 511.834 244.958C511.174 244.194 510.679 243.307 510.349 242.296C510.019 241.285 509.854 240.192 509.854 239.016ZM528.49 231.001H530.966V233.538H531.028C532.121 231.599 533.854 230.63 536.227 230.63C537.279 230.63 538.156 230.774 538.857 231.063C539.559 231.352 540.126 231.754 540.559 232.27C540.992 232.785 541.291 233.404 541.457 234.126C541.642 234.828 541.735 235.612 541.735 236.478V247H539.105V236.169C539.105 235.179 538.816 234.395 538.238 233.817C537.66 233.239 536.866 232.95 535.855 232.95C535.051 232.95 534.349 233.074 533.751 233.322C533.173 233.569 532.688 233.92 532.296 234.374C531.905 234.828 531.605 235.364 531.399 235.983C531.213 236.581 531.121 237.242 531.121 237.964V247H528.49V231.001ZM555.001 247V231.001H557.631V247H555.001ZM555.001 228.123V224.904H557.631V228.123H555.001ZM546.769 233.322H544.077V231.001H546.769V228.618C546.769 227.318 547.14 226.338 547.883 225.678C548.646 224.997 549.75 224.657 551.194 224.657C551.442 224.657 551.72 224.678 552.03 224.719C552.36 224.76 552.649 224.822 552.896 224.904V227.195C552.669 227.112 552.422 227.06 552.154 227.04C551.885 226.999 551.638 226.978 551.411 226.978C550.771 226.978 550.276 227.102 549.925 227.349C549.575 227.597 549.399 228.071 549.399 228.773V231.001H552.494V233.322H549.399V247H546.769V233.322ZM575.505 245.638C575.505 248.258 574.906 250.218 573.71 251.518C572.513 252.818 570.636 253.468 568.078 253.468C567.335 253.468 566.572 253.385 565.788 253.22C565.024 253.055 564.323 252.787 563.683 252.416C563.064 252.044 562.549 251.559 562.136 250.961C561.723 250.363 561.496 249.63 561.455 248.764H564.086C564.106 249.238 564.251 249.641 564.519 249.971C564.808 250.301 565.148 250.569 565.54 250.775C565.953 250.982 566.396 251.126 566.871 251.209C567.345 251.312 567.799 251.363 568.232 251.363C569.099 251.363 569.831 251.209 570.43 250.899C571.028 250.61 571.523 250.198 571.915 249.661C572.307 249.146 572.585 248.516 572.751 247.774C572.936 247.031 573.029 246.216 573.029 245.329V244.277H572.967C572.513 245.267 571.822 245.999 570.894 246.474C569.986 246.928 569.016 247.155 567.985 247.155C566.788 247.155 565.746 246.938 564.859 246.505C563.972 246.072 563.229 245.494 562.631 244.772C562.033 244.029 561.579 243.173 561.27 242.203C560.981 241.213 560.836 240.171 560.836 239.078C560.836 238.129 560.96 237.159 561.208 236.169C561.455 235.158 561.868 234.25 562.445 233.446C563.023 232.62 563.786 231.95 564.735 231.434C565.685 230.898 566.85 230.63 568.232 230.63C569.243 230.63 570.172 230.856 571.018 231.31C571.863 231.744 572.524 232.404 572.998 233.291H573.029V231.001H575.505V245.638ZM568.14 244.865C569.006 244.865 569.738 244.689 570.337 244.339C570.956 243.967 571.451 243.493 571.822 242.915C572.193 242.317 572.462 241.646 572.627 240.904C572.812 240.161 572.905 239.418 572.905 238.676C572.905 237.974 572.823 237.283 572.658 236.602C572.493 235.921 572.224 235.313 571.853 234.776C571.502 234.219 571.038 233.776 570.461 233.446C569.883 233.116 569.181 232.95 568.356 232.95C567.51 232.95 566.788 233.116 566.19 233.446C565.592 233.755 565.097 234.178 564.705 234.714C564.333 235.251 564.055 235.87 563.869 236.571C563.704 237.273 563.621 238.005 563.621 238.768C563.621 239.49 563.694 240.212 563.838 240.935C563.982 241.657 564.23 242.317 564.581 242.915C564.931 243.493 565.396 243.967 565.973 244.339C566.551 244.689 567.273 244.865 568.14 244.865Z" fill="#D4FF7A"/>
<defs>
<clipPath id="clip0_1702_12270">
<rect width="72.2368" height="15.7435" fill="white" transform="translate(877 21)"/>
</clipPath>
</defs>
</svg>
